<mxfile host="app.diagrams.net" modified="2021-11-09T06:36:39.189Z" agent="5.0 (Windows NT 10.0; Win64; x64) AppleWebKit/537.36 (KHTML, like Gecko) Chrome/95.0.4638.54 Safari/537.36" etag="t3SMpeQF8ls1BPi_Kn2U" version="15.7.0" type="github">
  <diagram id="6sP4ooH70u9D8gIPvbmA" name="Page-1">
    <mxGraphModel dx="1185" dy="635" grid="0" gridSize="10" guides="1" tooltips="1" connect="1" arrows="1" fold="1" page="1" pageScale="1" pageWidth="827" pageHeight="1169" math="0" shadow="0">
      <root>
        <mxCell id="0" />
        <mxCell id="1" parent="0" />
        <mxCell id="8ZplRDHjXU4G_SFf2bbu-1" value="&lt;font style=&quot;font-size: 18px&quot;&gt;MCU&lt;/font&gt;" style="rounded=1;whiteSpace=wrap;html=1;" vertex="1" parent="1">
          <mxGeometry x="47" y="311" width="120" height="60" as="geometry" />
        </mxCell>
        <mxCell id="8ZplRDHjXU4G_SFf2bbu-2" value="模组" style="rounded=1;whiteSpace=wrap;html=1;fontSize=18;" vertex="1" parent="1">
          <mxGeometry x="255" y="311" width="120" height="60" as="geometry" />
        </mxCell>
        <mxCell id="8ZplRDHjXU4G_SFf2bbu-3" value="app" style="rounded=1;whiteSpace=wrap;html=1;fontSize=18;" vertex="1" parent="1">
          <mxGeometry x="492" y="311" width="120" height="60" as="geometry" />
        </mxCell>
        <mxCell id="8ZplRDHjXU4G_SFf2bbu-4" value="云端" style="rounded=1;whiteSpace=wrap;html=1;fontSize=18;" vertex="1" parent="1">
          <mxGeometry x="492" y="158" width="120" height="60" as="geometry" />
        </mxCell>
        <mxCell id="8ZplRDHjXU4G_SFf2bbu-6" value="&lt;font style=&quot;font-size: 14px&quot;&gt;串口&lt;/font&gt;" style="text;html=1;strokeColor=none;fillColor=none;align=center;verticalAlign=middle;whiteSpace=wrap;rounded=0;fontSize=18;" vertex="1" parent="1">
          <mxGeometry x="179" y="244" width="60" height="30" as="geometry" />
        </mxCell>
        <mxCell id="8ZplRDHjXU4G_SFf2bbu-7" value="" style="endArrow=classic;html=1;rounded=0;fontSize=14;exitX=1;exitY=0.25;exitDx=0;exitDy=0;exitPerimeter=0;entryX=0;entryY=0.25;entryDx=0;entryDy=0;" edge="1" parent="1" source="8ZplRDHjXU4G_SFf2bbu-2" target="8ZplRDHjXU4G_SFf2bbu-3">
          <mxGeometry width="50" height="50" relative="1" as="geometry">
            <mxPoint x="381" y="288" as="sourcePoint" />
            <mxPoint x="431" y="238" as="targetPoint" />
          </mxGeometry>
        </mxCell>
        <mxCell id="8ZplRDHjXU4G_SFf2bbu-8" value="蓝牙" style="text;html=1;strokeColor=none;fillColor=none;align=center;verticalAlign=middle;whiteSpace=wrap;rounded=0;fontSize=14;" vertex="1" parent="1">
          <mxGeometry x="391" y="244" width="60" height="30" as="geometry" />
        </mxCell>
        <mxCell id="8ZplRDHjXU4G_SFf2bbu-9" value="" style="endArrow=classic;html=1;rounded=0;fontSize=14;entryX=1;entryY=0.75;entryDx=0;entryDy=0;exitX=0;exitY=0.75;exitDx=0;exitDy=0;" edge="1" parent="1" source="8ZplRDHjXU4G_SFf2bbu-3" target="8ZplRDHjXU4G_SFf2bbu-2">
          <mxGeometry width="50" height="50" relative="1" as="geometry">
            <mxPoint x="418" y="411" as="sourcePoint" />
            <mxPoint x="468" y="361" as="targetPoint" />
          </mxGeometry>
        </mxCell>
        <mxCell id="8ZplRDHjXU4G_SFf2bbu-10" value="数据下发" style="text;html=1;strokeColor=none;fillColor=none;align=center;verticalAlign=middle;whiteSpace=wrap;rounded=0;fontSize=14;" vertex="1" parent="1">
          <mxGeometry x="398" y="329" width="60" height="30" as="geometry" />
        </mxCell>
        <mxCell id="8ZplRDHjXU4G_SFf2bbu-11" value="数据上报" style="text;html=1;strokeColor=none;fillColor=none;align=center;verticalAlign=middle;whiteSpace=wrap;rounded=0;fontSize=14;" vertex="1" parent="1">
          <mxGeometry x="398" y="296" width="60" height="30" as="geometry" />
        </mxCell>
        <mxCell id="8ZplRDHjXU4G_SFf2bbu-12" value="" style="endArrow=classic;html=1;rounded=0;fontSize=14;entryX=0.75;entryY=1;entryDx=0;entryDy=0;" edge="1" parent="1" target="8ZplRDHjXU4G_SFf2bbu-4">
          <mxGeometry width="50" height="50" relative="1" as="geometry">
            <mxPoint x="582" y="310" as="sourcePoint" />
            <mxPoint x="592" y="235" as="targetPoint" />
          </mxGeometry>
        </mxCell>
        <mxCell id="8ZplRDHjXU4G_SFf2bbu-13" value="" style="endArrow=classic;html=1;rounded=0;fontSize=14;entryX=0.25;entryY=0;entryDx=0;entryDy=0;exitX=0.25;exitY=1;exitDx=0;exitDy=0;" edge="1" parent="1" source="8ZplRDHjXU4G_SFf2bbu-4" target="8ZplRDHjXU4G_SFf2bbu-3">
          <mxGeometry width="50" height="50" relative="1" as="geometry">
            <mxPoint x="427" y="268" as="sourcePoint" />
            <mxPoint x="477" y="218" as="targetPoint" />
          </mxGeometry>
        </mxCell>
        <mxCell id="8ZplRDHjXU4G_SFf2bbu-15" value="同步" style="text;html=1;strokeColor=none;fillColor=none;align=center;verticalAlign=middle;whiteSpace=wrap;rounded=0;fontSize=14;" vertex="1" parent="1">
          <mxGeometry x="522" y="255" width="60" height="30" as="geometry" />
        </mxCell>
        <mxCell id="8ZplRDHjXU4G_SFf2bbu-16" value="" style="endArrow=classic;html=1;rounded=0;fontSize=14;exitX=1;exitY=0.25;exitDx=0;exitDy=0;entryX=0;entryY=0.25;entryDx=0;entryDy=0;" edge="1" parent="1" source="8ZplRDHjXU4G_SFf2bbu-1" target="8ZplRDHjXU4G_SFf2bbu-2">
          <mxGeometry width="50" height="50" relative="1" as="geometry">
            <mxPoint x="89" y="285" as="sourcePoint" />
            <mxPoint x="139" y="235" as="targetPoint" />
          </mxGeometry>
        </mxCell>
        <mxCell id="8ZplRDHjXU4G_SFf2bbu-17" value="" style="endArrow=classic;html=1;rounded=0;fontSize=14;exitX=0;exitY=0.75;exitDx=0;exitDy=0;entryX=1;entryY=0.75;entryDx=0;entryDy=0;" edge="1" parent="1" source="8ZplRDHjXU4G_SFf2bbu-2" target="8ZplRDHjXU4G_SFf2bbu-1">
          <mxGeometry width="50" height="50" relative="1" as="geometry">
            <mxPoint x="135" y="430" as="sourcePoint" />
            <mxPoint x="185" y="380" as="targetPoint" />
          </mxGeometry>
        </mxCell>
        <mxCell id="8ZplRDHjXU4G_SFf2bbu-18" value="数据上报" style="text;html=1;strokeColor=none;fillColor=none;align=center;verticalAlign=middle;whiteSpace=wrap;rounded=0;fontSize=14;" vertex="1" parent="1">
          <mxGeometry x="177" y="296" width="60" height="30" as="geometry" />
        </mxCell>
        <mxCell id="8ZplRDHjXU4G_SFf2bbu-19" value="数据下发" style="text;html=1;strokeColor=none;fillColor=none;align=center;verticalAlign=middle;whiteSpace=wrap;rounded=0;fontSize=14;" vertex="1" parent="1">
          <mxGeometry x="179" y="329" width="60" height="30" as="geometry" />
        </mxCell>
      </root>
    </mxGraphModel>
  </diagram>
</mxfile>
